<svg xmlns="http://www.w3.org/2000/svg" width="890" height="1260" viewBox="0 0 890 1260"><rect width="890" height="1260" fill="#FFFFFF"/><circle cx="330" cy="330" r="215" fill="#FFE566"/><circle cx="660" cy="300" r="120" fill="#FFE566"/><rect x="125" y="235" width="260" height="155" rx="10" fill="#FFFFFF" stroke="#111111" stroke-width="5"/><rect x="125" y="235" width="260" height="36" rx="10" fill="#111111"/><rect x="125" y="259" width="260" height="12" fill="#111111"/><circle cx="147" cy="253.0" r="5" fill="#FFFFFF"/><circle cx="167" cy="253.0" r="5" fill="#FFFFFF" fill-opacity="0.6"/><circle cx="192" cy="315" r="38" fill="#FFDD2D" stroke="#111111" stroke-width="4"/><path d="M192,315 L192,277 A38,38 0 0,1 224,333 z" fill="#1CA5E5" stroke="#111111" stroke-width="3"/><circle cx="252" cy="288" r="6" fill="#FFDD2D"/><rect x="266" y="283" width="100" height="9" rx="4" fill="#111111" fill-opacity="0.85"/><circle cx="252" cy="312" r="6" fill="#FFDD2D"/><rect x="266" y="307" width="100" height="9" rx="4" fill="#111111" fill-opacity="0.75"/><circle cx="252" cy="336" r="6" fill="#FFDD2D"/><rect x="266" y="331" width="100" height="9" rx="4" fill="#111111" fill-opacity="0.6499999999999999"/><circle cx="252" cy="360" r="6" fill="#FFDD2D"/><rect x="266" y="355" width="100" height="9" rx="4" fill="#111111" fill-opacity="0.5499999999999999"/><rect x="578" y="225" width="175" height="170" rx="10" fill="#FFFFFF" stroke="#111111" stroke-width="5"/><rect x="578" y="225" width="175" height="30" rx="10" fill="#111111"/><rect x="578" y="243" width="175" height="12" fill="#111111"/><circle cx="600" cy="240.0" r="5" fill="#FFFFFF"/><circle cx="620" cy="240.0" r="5" fill="#FFFFFF" fill-opacity="0.6"/><rect x="600" y="329" width="20" height="46" fill="#1CA5E5"/><rect x="630" y="309" width="20" height="66" fill="#1CA5E5"/><rect x="660" y="279" width="20" height="96" fill="#1CA5E5"/><rect x="690" y="299" width="20" height="76" fill="#1CA5E5"/><rect x="718" y="319" width="20" height="56" fill="#1CA5E5"/><line x1="595" y1="375" x2="740" y2="375" stroke="#111111" stroke-width="4"/><rect x="365" y="305" width="265" height="195" rx="10" fill="#FFFFFF" stroke="#111111" stroke-width="5"/><rect x="365" y="305" width="265" height="34" rx="10" fill="#1CA5E5"/><rect x="365" y="327" width="265" height="12" fill="#1CA5E5"/><circle cx="387" cy="322.0" r="5" fill="#FFFFFF"/><circle cx="407" cy="322.0" r="5" fill="#FFFFFF" fill-opacity="0.6"/><rect x="385" y="352" width="225" height="16" rx="6" fill="#FFDD2D"/><rect x="385" y="380" width="105" height="72" rx="6" fill="#FFDD2D"/><rect x="502" y="380" width="108" height="30" rx="6" fill="#5BC4F0" fill-opacity="0.5"/><rect x="502" y="420" width="108" height="30" rx="6" fill="#5BC4F0" fill-opacity="0.5"/><circle cx="545" cy="472" r="8" fill="#111111"/><circle cx="573" cy="472" r="8" fill="#111111"/><circle cx="601" cy="472" r="8" fill="#111111"/><path d="M255,395 a48,52 0 1,1 60,8 l-6,40 l-50,-6 z" fill="#FFFFFF" stroke="#111111" stroke-width="5"/><path d="M247,362 a52,52 0 0,1 74,-18 l6,26 a40,40 0 0,0 -62,10 z" fill="#111111"/><circle cx="296" cy="378" r="3.5" fill="#111111"/><path d="M300,398 q10,8 20,2" stroke="#111111" stroke-width="3.5" fill="none"/><path d="M190,640 q-6,-150 76,-190 q60,-24 108,18 l58,52 q16,16 2,32 q-16,16 -32,2 l-46,-40 l-10,126 z" fill="#1CA5E5" stroke="#111111" stroke-width="5"/><rect x="440" y="470" width="185" height="130" rx="10" fill="#FFFFFF" stroke="#111111" stroke-width="6"/><path d="M505,600 h56 l10,36 h-76 z" fill="#1CA5E5" stroke="#111111" stroke-width="5"/><rect x="470" y="636" width="130" height="10" rx="5" fill="#111111"/><path d="M395,600 q30,26 70,20" stroke="#111111" stroke-width="5" fill="none"/><circle cx="280.48" cy="170.0" r="28.799999999999997" fill="#5BC4F0"/><circle cx="269.1618261117094" cy="212.24" r="28.799999999999997" fill="#5BC4F0"/><circle cx="238.24" cy="243.1618261117094" r="28.799999999999997" fill="#5BC4F0"/><circle cx="196.0" cy="254.48000000000002" r="28.799999999999997" fill="#5BC4F0"/><circle cx="153.76000000000002" cy="243.1618261117094" r="28.799999999999997" fill="#5BC4F0"/><circle cx="122.83817388829061" cy="212.24" r="28.799999999999997" fill="#5BC4F0"/><circle cx="111.52" cy="170.0" r="28.799999999999997" fill="#5BC4F0"/><circle cx="122.83817388829061" cy="127.76000000000002" r="28.799999999999997" fill="#5BC4F0"/><circle cx="153.75999999999996" cy="96.83817388829064" r="28.799999999999997" fill="#5BC4F0"/><circle cx="195.99999999999997" cy="85.52" r="28.799999999999997" fill="#5BC4F0"/><circle cx="238.24" cy="96.83817388829063" r="28.799999999999997" fill="#5BC4F0"/><circle cx="269.1618261117094" cy="127.75999999999996" r="28.799999999999997" fill="#5BC4F0"/><circle cx="196" cy="170" r="96" fill="#5BC4F0"/><text x="196" y="148" font-family="NanumGothic" font-size="26" font-weight="bold" fill="#111111" text-anchor="middle">Odoo AI ERP</text><text x="196" y="178" font-family="NanumGothic" font-size="17" font-weight="normal" fill="#111111" text-anchor="middle">매출증대</text><text x="196" y="200" font-family="NanumGothic" font-size="17" font-weight="normal" fill="#111111" text-anchor="middle">생산성 향상</text><text x="196" y="222" font-family="NanumGothic" font-size="17" font-weight="normal" fill="#111111" text-anchor="middle">품질 향상</text><circle cx="780.96" cy="158.0" r="27.599999999999998" fill="#FFDD2D"/><circle cx="770.1134166903881" cy="198.48" r="27.599999999999998" fill="#FFDD2D"/><circle cx="740.48" cy="228.11341669038814" r="27.599999999999998" fill="#FFDD2D"/><circle cx="700.0" cy="238.95999999999998" r="27.599999999999998" fill="#FFDD2D"/><circle cx="659.52" cy="228.11341669038814" r="27.599999999999998" fill="#FFDD2D"/><circle cx="629.8865833096119" cy="198.48" r="27.599999999999998" fill="#FFDD2D"/><circle cx="619.04" cy="158.0" r="27.599999999999998" fill="#FFDD2D"/><circle cx="629.8865833096119" cy="117.52000000000002" r="27.599999999999998" fill="#FFDD2D"/><circle cx="659.52" cy="87.88658330961188" r="27.599999999999998" fill="#FFDD2D"/><circle cx="700.0" cy="77.04" r="27.599999999999998" fill="#FFDD2D"/><circle cx="740.48" cy="87.88658330961185" r="27.599999999999998" fill="#FFDD2D"/><circle cx="770.1134166903881" cy="117.51999999999997" r="27.599999999999998" fill="#FFDD2D"/><circle cx="700" cy="158" r="92" fill="#FFDD2D"/><text x="700" y="136" font-family="NanumGothic" font-size="25" font-weight="bold" fill="#111111" text-anchor="middle">에이전틱 AI</text><text x="700" y="164" font-family="NanumGothic" font-size="16.5" font-weight="normal" fill="#111111" text-anchor="middle">업무 자동화</text><text x="700" y="185" font-family="NanumGothic" font-size="16.5" font-weight="normal" fill="#111111" text-anchor="middle">비용절감 30%</text><text x="700" y="206" font-family="NanumGothic" font-size="16.5" font-weight="normal" fill="#111111" text-anchor="middle">지식 노하우 지능화</text><rect x="0" y="655" width="890" height="605" fill="#1CA5E5"/><text x="445.0" y="745" font-family="NanumGothic" font-size="46" font-weight="bold" fill="#111111" text-anchor="middle">Odoo를 중심으로</text><text x="445.0" y="860" font-family="NanumGothic" font-size="120" font-weight="bold" fill="#FFDD2D" text-anchor="middle" letter-spacing="2">AI ERP</text><text x="445.0" y="985" font-family="NanumGothic" font-size="105" font-weight="bold" fill="#111111" text-anchor="middle" letter-spacing="14">혁 명</text><circle cx="90" cy="1040" r="3" fill="#111111"/><circle cx="104" cy="1040" r="3" fill="#111111"/><circle cx="118" cy="1040" r="3" fill="#111111"/><circle cx="132" cy="1040" r="3" fill="#111111"/><circle cx="146" cy="1040" r="3" fill="#111111"/><circle cx="160" cy="1040" r="3" fill="#111111"/><circle cx="174" cy="1040" r="3" fill="#111111"/><circle cx="188" cy="1040" r="3" fill="#111111"/><circle cx="202" cy="1040" r="3" fill="#111111"/><circle cx="216" cy="1040" r="3" fill="#111111"/><circle cx="230" cy="1040" r="3" fill="#111111"/><circle cx="244" cy="1040" r="3" fill="#111111"/><circle cx="258" cy="1040" r="3" fill="#111111"/><circle cx="272" cy="1040" r="3" fill="#111111"/><circle cx="286" cy="1040" r="3" fill="#111111"/><circle cx="300" cy="1040" r="3" fill="#111111"/><circle cx="314" cy="1040" r="3" fill="#111111"/><circle cx="328" cy="1040" r="3" fill="#111111"/><circle cx="342" cy="1040" r="3" fill="#111111"/><circle cx="356" cy="1040" r="3" fill="#111111"/><circle cx="370" cy="1040" r="3" fill="#111111"/><circle cx="384" cy="1040" r="3" fill="#111111"/><circle cx="398" cy="1040" r="3" fill="#111111"/><circle cx="412" cy="1040" r="3" fill="#111111"/><circle cx="426" cy="1040" r="3" fill="#111111"/><circle cx="440" cy="1040" r="3" fill="#111111"/><circle cx="454" cy="1040" r="3" fill="#111111"/><circle cx="468" cy="1040" r="3" fill="#111111"/><circle cx="482" cy="1040" r="3" fill="#111111"/><circle cx="496" cy="1040" r="3" fill="#111111"/><circle cx="510" cy="1040" r="3" fill="#111111"/><circle cx="524" cy="1040" r="3" fill="#111111"/><circle cx="538" cy="1040" r="3" fill="#111111"/><circle cx="552" cy="1040" r="3" fill="#111111"/><circle cx="566" cy="1040" r="3" fill="#111111"/><circle cx="580" cy="1040" r="3" fill="#111111"/><circle cx="594" cy="1040" r="3" fill="#111111"/><circle cx="608" cy="1040" r="3" fill="#111111"/><circle cx="622" cy="1040" r="3" fill="#111111"/><circle cx="636" cy="1040" r="3" fill="#111111"/><circle cx="650" cy="1040" r="3" fill="#111111"/><circle cx="664" cy="1040" r="3" fill="#111111"/><circle cx="678" cy="1040" r="3" fill="#111111"/><circle cx="692" cy="1040" r="3" fill="#111111"/><circle cx="706" cy="1040" r="3" fill="#111111"/><circle cx="720" cy="1040" r="3" fill="#111111"/><circle cx="734" cy="1040" r="3" fill="#111111"/><circle cx="748" cy="1040" r="3" fill="#111111"/><circle cx="762" cy="1040" r="3" fill="#111111"/><circle cx="776" cy="1040" r="3" fill="#111111"/><circle cx="790" cy="1040" r="3" fill="#111111"/><circle cx="85" cy="1079" r="4" fill="#111111"/><text x="255" y="1085" font-family="NanumGothic" font-size="21" font-weight="bold" fill="#111111" text-anchor="middle">수요예측을 통한 영업 지능화</text><circle cx="460" cy="1079" r="4" fill="#111111"/><text x="630" y="1085" font-family="NanumGothic" font-size="21" font-weight="bold" fill="#111111" text-anchor="middle">재고 최적화 및 생산계획 자동화</text><circle cx="85" cy="1116" r="4" fill="#111111"/><text x="255" y="1122" font-family="NanumGothic" font-size="21" font-weight="bold" fill="#111111" text-anchor="middle">IoT를 이용 설비예지 지능화</text><circle cx="460" cy="1116" r="4" fill="#111111"/><text x="630" y="1122" font-family="NanumGothic" font-size="21" font-weight="bold" fill="#111111" text-anchor="middle">기업의 노하우를 지식센터 지능화</text><text x="445.0" y="1200" font-family="NanumGothic" font-size="30" font-weight="bold" fill="#111111" text-anchor="middle">에이에스씨</text><rect x="0" y="1236" width="890" height="24" fill="#0F86C0"/></svg>