<svg xmlns="http://www.w3.org/2000/svg" width="900" height="540" viewBox="0 0 900 540"><rect width="900" height="540" fill="#FFFFFF"/><defs><marker id="ah" markerWidth="10" markerHeight="8" refX="8" refY="4" orient="auto"><path d="M0,0 L9,4 L0,8 z" fill="#1E2761"/></marker><marker id="ahT" markerWidth="10" markerHeight="8" refX="8" refY="4" orient="auto"><path d="M0,0 L9,4 L0,8 z" fill="#028090"/></marker><marker id="ahA" markerWidth="10" markerHeight="8" refX="8" refY="4" orient="auto"><path d="M0,0 L9,4 L0,8 z" fill="#B85042"/></marker><marker id="ahG" markerWidth="10" markerHeight="8" refX="8" refY="4" orient="auto"><path d="M0,0 L9,4 L0,8 z" fill="#5A6472"/></marker></defs><text x="450.0" y="38" font-family="NanumGothic" font-size="22" font-weight="bold" fill="#1E2761" text-anchor="middle">루프 학습 곡선</text><text x="450.0" y="62" font-family="NanumGothic" font-size="12.5" font-weight="bold" fill="#5A6472" text-anchor="middle">루프의 누적 회전수가 경험량, 예측 오차가 단위 비용 — 회전할수록 정확해진다</text><line x1="110" y1="420" x2="848" y2="420" stroke="#454C57" stroke-width="1.6" marker-end="url(#ahG)"/><line x1="110" y1="420" x2="110" y2="87" stroke="#454C57" stroke-width="1.6" marker-end="url(#ahG)"/><text x="475.0" y="452" font-family="NanumGothic" font-size="12.5" font-weight="bold" fill="#454C57" text-anchor="middle">루프 누적 회전 수</text><text x="102" y="84" font-family="NanumGothic" font-size="12.5" font-weight="bold" fill="#454C57" text-anchor="end">예측 오차</text><polyline points="110.0,140.0 117.3,151.9 124.6,163.1 131.9,173.8 139.2,183.8 146.5,193.4 153.8,202.4 161.1,210.9 168.4,218.9 175.7,226.6 183.0,233.8 190.3,240.6 197.6,247.0 204.9,253.2 212.2,258.9 219.5,264.4 226.8,269.6 234.1,274.4 241.4,279.1 248.7,283.4 256.0,287.6 263.3,291.5 270.6,295.2 277.9,298.7 285.2,302.0 292.5,305.1 299.8,308.1 307.1,310.9 314.4,313.6 321.7,316.1 329.0,318.4 336.3,320.7 343.6,322.8 350.9,324.8 358.2,326.7 365.5,328.5 372.8,330.2 380.1,331.8 387.4,333.4 394.7,334.8 402.0,336.2 409.3,337.4 416.6,338.7 423.9,339.8 431.2,340.9 438.5,341.9 445.8,342.9 453.1,343.8 460.4,344.7 467.7,345.5 475.0,346.3 482.3,347.1 489.6,347.8 496.9,348.4 504.2,349.0 511.5,349.6 518.8,350.2 526.1,350.7 533.4,351.2 540.7,351.7 548.0,352.2 555.3,352.6 562.6,353.0 569.9,353.4 577.2,353.7 584.5,354.1 591.8,354.4 599.1,354.7 606.4,355.0 613.7,355.2 621.0,355.5 628.3,355.7 635.6,356.0 642.9,356.2 650.2,356.4 657.5,356.6 664.8,356.8 672.1,356.9 679.4,357.1 686.7,357.3 694.0,357.4 701.3,357.6 708.6,357.7 715.9,357.8 723.2,357.9 730.5,358.0 737.8,358.1 745.1,358.2 752.4,358.3 759.7,358.4 767.0,358.5 774.3,358.6 781.6,358.7 788.9,358.7 796.2,358.8 803.5,358.9 810.8,358.9 818.1,359.0 825.4,359.0 832.7,359.1 840.0,359.1" fill="none" stroke="#028090" stroke-width="3"/><line x1="110" y1="360.0" x2="840" y2="360.0" stroke="#5A6472" stroke-width="1" stroke-dasharray="5,4"/><text x="836" y="352.0" font-family="NanumGothic" font-size="11.5" font-weight="bold" fill="#5A6472" text-anchor="end">우연 변동의 한계 (환원 불가능한 오차)</text><circle cx="183.0" cy="233.77424743776479" r="4.5" fill="#028090"/><text x="330" y="140" font-family="NanumGothic" font-size="12.5" font-weight="bold" fill="#1E2761" text-anchor="middle">초기 회전 — 오차 급감 구간</text><text x="330" y="158" font-family="NanumGothic" font-size="12.5" font-weight="bold" fill="#1E2761" text-anchor="middle">큰 원인이 먼저 제거된다</text><line x1="258" y1="150" x2="191.0" y2="227.77424743776479" stroke="#5A6472" stroke-width="1"/><circle cx="621.0" cy="355.4970233428429" r="4.5" fill="#028090"/><text x="660" y="240" font-family="NanumGothic" font-size="12.5" font-weight="bold" fill="#1E2761" text-anchor="middle">후기 회전 — 완만한 수렴 구간</text><text x="660" y="258" font-family="NanumGothic" font-size="12.5" font-weight="bold" fill="#1E2761" text-anchor="middle">개입 기록·암묵지가 미세 조정</text><line x1="640" y1="268" x2="623.0" y2="347.4970233428429" stroke="#5A6472" stroke-width="1"/><line x1="110" y1="478" x2="140" y2="478" stroke="#B85042" stroke-width="3.5"/><text x="150" y="482" font-family="NanumGothic" font-size="11.5" font-weight="bold" fill="#B85042" text-anchor="start">사람의 DMAIC — 연 3~4회전</text><line x1="110" y1="506" x2="840" y2="506" stroke="#028090" stroke-width="3.5"/><text x="475.0" y="526" font-family="NanumGothic" font-size="11.5" font-weight="bold" fill="#028090" text-anchor="middle">데이터 루프 — 연 수백 회전, 같은 곡선을 훨씬 빠르게 내려간다</text></svg>