<svg xmlns="http://www.w3.org/2000/svg" width="980" height="400" viewBox="0 0 980 400"><rect width="980" height="400" fill="#FFFFFF"/><defs><marker id="ah" markerWidth="10" markerHeight="8" refX="8" refY="4" orient="auto"><path d="M0,0 L9,4 L0,8 z" fill="#1E2761"/></marker><marker id="ahT" markerWidth="10" markerHeight="8" refX="8" refY="4" orient="auto"><path d="M0,0 L9,4 L0,8 z" fill="#028090"/></marker><marker id="ahA" markerWidth="10" markerHeight="8" refX="8" refY="4" orient="auto"><path d="M0,0 L9,4 L0,8 z" fill="#B85042"/></marker><marker id="ahG" markerWidth="10" markerHeight="8" refX="8" refY="4" orient="auto"><path d="M0,0 L9,4 L0,8 z" fill="#5A6472"/></marker></defs><text x="490.0" y="40" font-family="NanumGothic" font-size="22" font-weight="bold" fill="#1E2761" text-anchor="middle">제조 데이터 흐름 — 수주에서 원가까지</text><text x="490.0" y="66" font-family="NanumGothic" font-size="13" font-weight="bold" fill="#5A6472" text-anchor="middle">계획-실행-원가가 다섯 개의 섬이 아니라 하나의 흐름이 된다</text><rect x="14.0" y="96" width="142" height="64" rx="9" fill="#E8F0FB" stroke="#1E2761" stroke-width="1.6"/><text x="85.0" y="122" font-family="NanumGothic" font-size="14" font-weight="bold" fill="#1E2761" text-anchor="middle">수주</text><text x="85.0" y="142" font-family="NanumGothic" font-size="11" font-weight="bold" fill="#5A6472" text-anchor="middle">판매 주문 확정</text><line x1="157.0" y1="128" x2="175.0" y2="128" stroke="#028090" stroke-width="2.4" marker-end="url(#ahT)"/><line x1="85.0" y1="160" x2="85.0" y2="176" stroke="#5A6472" stroke-width="1"/><rect x="14.0" y="176" width="142" height="60" rx="6" fill="#E8F0FB" stroke="#028090" stroke-width="1.1"/><text x="85.0" y="192" font-family="NanumGothic" font-size="11" font-weight="bold" fill="#028090" text-anchor="middle">발생 데이터</text><text x="85.0" y="210" font-family="NanumGothic" font-size="11" font-weight="bold" fill="#5A6472" text-anchor="middle">고객·품목·수량</text><text x="85.0" y="226" font-family="NanumGothic" font-size="11" font-weight="bold" fill="#5A6472" text-anchor="middle">납기·수주 단가</text><rect x="176.0" y="96" width="142" height="64" rx="9" fill="#E8F0FB" stroke="#1E2761" stroke-width="1.6"/><text x="247.0" y="122" font-family="NanumGothic" font-size="14" font-weight="bold" fill="#1E2761" text-anchor="middle">MPS</text><text x="247.0" y="142" font-family="NanumGothic" font-size="11" font-weight="bold" fill="#5A6472" text-anchor="middle">기준 생산 일정</text><line x1="319.0" y1="128" x2="337.0" y2="128" stroke="#028090" stroke-width="2.4" marker-end="url(#ahT)"/><line x1="247.0" y1="160" x2="247.0" y2="176" stroke="#5A6472" stroke-width="1"/><rect x="176.0" y="176" width="142" height="60" rx="6" fill="#E8F0FB" stroke="#028090" stroke-width="1.1"/><text x="247.0" y="192" font-family="NanumGothic" font-size="11" font-weight="bold" fill="#028090" text-anchor="middle">발생 데이터</text><text x="247.0" y="210" font-family="NanumGothic" font-size="11" font-weight="bold" fill="#5A6472" text-anchor="middle">기간별 생산 수량</text><text x="247.0" y="226" font-family="NanumGothic" font-size="11" font-weight="bold" fill="#5A6472" text-anchor="middle">S&amp;OP 합의 숫자</text><rect x="338.0" y="96" width="142" height="64" rx="9" fill="#E8F0FB" stroke="#1E2761" stroke-width="1.6"/><text x="409.0" y="122" font-family="NanumGothic" font-size="14" font-weight="bold" fill="#1E2761" text-anchor="middle">MRP</text><text x="409.0" y="142" font-family="NanumGothic" font-size="11" font-weight="bold" fill="#5A6472" text-anchor="middle">소요량 전개</text><line x1="481.0" y1="128" x2="499.0" y2="128" stroke="#028090" stroke-width="2.4" marker-end="url(#ahT)"/><line x1="409.0" y1="160" x2="409.0" y2="176" stroke="#5A6472" stroke-width="1"/><rect x="338.0" y="176" width="142" height="60" rx="6" fill="#E8F0FB" stroke="#028090" stroke-width="1.1"/><text x="409.0" y="192" font-family="NanumGothic" font-size="11" font-weight="bold" fill="#028090" text-anchor="middle">발생 데이터</text><text x="409.0" y="210" font-family="NanumGothic" font-size="11" font-weight="bold" fill="#5A6472" text-anchor="middle">제조 주문·구매 제안</text><text x="409.0" y="226" font-family="NanumGothic" font-size="11" font-weight="bold" fill="#5A6472" text-anchor="middle">자재 예약·부족 경보</text><rect x="500.0" y="96" width="142" height="64" rx="9" fill="#E8F0FB" stroke="#1E2761" stroke-width="1.6"/><text x="571.0" y="122" font-family="NanumGothic" font-size="14" font-weight="bold" fill="#1E2761" text-anchor="middle">작업 지시</text><text x="571.0" y="142" font-family="NanumGothic" font-size="11" font-weight="bold" fill="#5A6472" text-anchor="middle">작업 주문 발행</text><line x1="643.0" y1="128" x2="661.0" y2="128" stroke="#028090" stroke-width="2.4" marker-end="url(#ahT)"/><line x1="571.0" y1="160" x2="571.0" y2="176" stroke="#5A6472" stroke-width="1"/><rect x="500.0" y="176" width="142" height="60" rx="6" fill="#E8F0FB" stroke="#028090" stroke-width="1.1"/><text x="571.0" y="192" font-family="NanumGothic" font-size="11" font-weight="bold" fill="#028090" text-anchor="middle">발생 데이터</text><text x="571.0" y="210" font-family="NanumGothic" font-size="11" font-weight="bold" fill="#5A6472" text-anchor="middle">공정별 지시·표준서</text><text x="571.0" y="226" font-family="NanumGothic" font-size="11" font-weight="bold" fill="#5A6472" text-anchor="middle">라우팅·표준시간</text><rect x="662.0" y="96" width="142" height="64" rx="9" fill="#E5F4F3" stroke="#028090" stroke-width="1.6"/><text x="733.0" y="122" font-family="NanumGothic" font-size="14" font-weight="bold" fill="#1E2761" text-anchor="middle">태블릿 실적</text><text x="733.0" y="142" font-family="NanumGothic" font-size="11" font-weight="bold" fill="#5A6472" text-anchor="middle">POP 실시간 수집</text><line x1="805.0" y1="128" x2="823.0" y2="128" stroke="#028090" stroke-width="2.4" marker-end="url(#ahT)"/><line x1="733.0" y1="160" x2="733.0" y2="176" stroke="#5A6472" stroke-width="1"/><rect x="662.0" y="176" width="142" height="60" rx="6" fill="#E8F0FB" stroke="#028090" stroke-width="1.1"/><text x="733.0" y="192" font-family="NanumGothic" font-size="11" font-weight="bold" fill="#028090" text-anchor="middle">발생 데이터</text><text x="733.0" y="210" font-family="NanumGothic" font-size="11" font-weight="bold" fill="#5A6472" text-anchor="middle">착수·완료 타임스탬프</text><text x="733.0" y="226" font-family="NanumGothic" font-size="11" font-weight="bold" fill="#5A6472" text-anchor="middle">자재 소진·불량 코드</text><rect x="824.0" y="96" width="142" height="64" rx="9" fill="#1E2761" stroke="#1E2761" stroke-width="1.6"/><text x="895.0" y="122" font-family="NanumGothic" font-size="14" font-weight="bold" fill="#FFFFFF" text-anchor="middle">원가 확정</text><text x="895.0" y="142" font-family="NanumGothic" font-size="11" font-weight="bold" fill="#CADCFC" text-anchor="middle">로트 원가 산출</text><line x1="895.0" y1="160" x2="895.0" y2="176" stroke="#5A6472" stroke-width="1"/><rect x="824.0" y="176" width="142" height="60" rx="6" fill="#E8F0FB" stroke="#028090" stroke-width="1.1"/><text x="895.0" y="192" font-family="NanumGothic" font-size="11" font-weight="bold" fill="#028090" text-anchor="middle">발생 데이터</text><text x="895.0" y="210" font-family="NanumGothic" font-size="11" font-weight="bold" fill="#5A6472" text-anchor="middle">재료비+노무비+경비</text><text x="895.0" y="226" font-family="NanumGothic" font-size="11" font-weight="bold" fill="#5A6472" text-anchor="middle">표준원가 대비 차이</text><path d="M895.0,242 Q490.0,300 85.0,244" fill="none" stroke="#B85042" stroke-width="2.2" marker-end="url(#ahA)" stroke-dasharray="6,4"/><text x="490.0" y="296" font-family="NanumGothic" font-size="12" font-weight="bold" fill="#B85042" text-anchor="middle">실제 원가 → 다음 견적·계획의 환류</text><rect x="14.0" y="314" width="952" height="40" rx="8" fill="#1E2761" stroke="#1E2761" stroke-width="1.5"/><text x="490.0" y="339" font-family="NanumGothic" font-size="13.5" font-weight="bold" fill="#FFFFFF" text-anchor="middle">단일 PostgreSQL — 여섯 지점 모두 같은 원장에 기록된다 (재입력·대사 없음)</text><text x="490.0" y="384" font-family="NanumGothic" font-size="11.5" font-weight="bold" fill="#5A6472" text-anchor="middle">2부 13장 — 태블릿 터치 하나가 재공·원가·납기 예측을 동시에 갱신한다</text></svg>