<svg xmlns="http://www.w3.org/2000/svg" width="960" height="500" viewBox="0 0 960 500"><rect width="960" height="500" fill="#FFFFFF"/><defs><marker id="ah" markerWidth="10" markerHeight="8" refX="8" refY="4" orient="auto"><path d="M0,0 L9,4 L0,8 z" fill="#1E2761"/></marker><marker id="ahT" markerWidth="10" markerHeight="8" refX="8" refY="4" orient="auto"><path d="M0,0 L9,4 L0,8 z" fill="#028090"/></marker><marker id="ahA" markerWidth="10" markerHeight="8" refX="8" refY="4" orient="auto"><path d="M0,0 L9,4 L0,8 z" fill="#B85042"/></marker><marker id="ahG" markerWidth="10" markerHeight="8" refX="8" refY="4" orient="auto"><path d="M0,0 L9,4 L0,8 z" fill="#5A6472"/></marker></defs><text x="480.0" y="38" font-family="NanumGothic" font-size="21" font-weight="bold" fill="#1E2761" text-anchor="middle">frePPLe 유한능력 일정 — 병목 워크센터가 리듬을 정한다</text><text x="480.0" y="62" font-family="NanumGothic" font-size="12.5" font-weight="normal" fill="#5A6472" text-anchor="middle">무한능력 가정을 벗어나, 워크센터의 능력을 제약으로 놓고 작업을 배치한다 (화면 도식)</text><text x="255.5" y="104" font-family="NanumGothic" font-size="12.5" font-weight="bold" fill="#5A6472" text-anchor="middle">월</text><text x="386.5" y="104" font-family="NanumGothic" font-size="12.5" font-weight="bold" fill="#5A6472" text-anchor="middle">화</text><text x="517.5" y="104" font-family="NanumGothic" font-size="12.5" font-weight="bold" fill="#5A6472" text-anchor="middle">수</text><text x="648.5" y="104" font-family="NanumGothic" font-size="12.5" font-weight="bold" fill="#5A6472" text-anchor="middle">목</text><text x="779.5" y="104" font-family="NanumGothic" font-size="12.5" font-weight="bold" fill="#5A6472" text-anchor="middle">금</text><line x1="190" y1="112" x2="845" y2="112" stroke="#5A6472" stroke-width="1.2"/><text x="898" y="96" font-family="NanumGothic" font-size="11" font-weight="normal" fill="#5A6472" text-anchor="middle">주간</text><text x="898" y="110" font-family="NanumGothic" font-size="11" font-weight="normal" fill="#5A6472" text-anchor="middle">부하율</text><line x1="190" y1="172" x2="845" y2="172" stroke="#D5DAE1" stroke-width="1"/><text x="50" y="150" font-family="NanumGothic" font-size="13" font-weight="bold" fill="#1E2761" text-anchor="start">절단</text><rect x="196.55" y="131" width="104.8" height="28" rx="5" fill="#028090" stroke="#01677A" stroke-width="1"/><text x="248.95000000000002" y="149" font-family="NanumGothic" font-size="11" font-weight="bold" fill="#FFFFFF" text-anchor="middle">WO-311</text><rect x="334.1" y="131" width="104.79999999999998" height="28" rx="5" fill="#028090" stroke="#01677A" stroke-width="1"/><text x="386.5" y="149" font-family="NanumGothic" font-size="11" font-weight="bold" fill="#FFFFFF" text-anchor="middle">WO-314</text><rect x="583.0" y="131" width="98.25" height="28" rx="5" fill="#028090" stroke="#01677A" stroke-width="1"/><text x="632.125" y="149" font-family="NanumGothic" font-size="11" font-weight="bold" fill="#FFFFFF" text-anchor="middle">WO-318</text><text x="898" y="151" font-family="NanumGothic" font-size="13.5" font-weight="bold" fill="#028090" text-anchor="middle">64%</text><line x1="190" y1="226" x2="845" y2="226" stroke="#D5DAE1" stroke-width="1"/><text x="50" y="204" font-family="NanumGothic" font-size="13" font-weight="bold" fill="#1E2761" text-anchor="start">용접</text><rect x="235.85" y="185" width="117.9" height="28" rx="5" fill="#028090" stroke="#01677A" stroke-width="1"/><text x="294.8" y="203" font-family="NanumGothic" font-size="11" font-weight="bold" fill="#FFFFFF" text-anchor="middle">WO-312</text><rect x="386.5" y="185" width="104.79999999999998" height="28" rx="5" fill="#028090" stroke="#01677A" stroke-width="1"/><text x="438.9" y="203" font-family="NanumGothic" font-size="11" font-weight="bold" fill="#FFFFFF" text-anchor="middle">WO-315</text><rect x="635.4" y="185" width="111.35000000000001" height="28" rx="5" fill="#028090" stroke="#01677A" stroke-width="1"/><text x="691.0749999999999" y="203" font-family="NanumGothic" font-size="11" font-weight="bold" fill="#FFFFFF" text-anchor="middle">WO-319</text><text x="898" y="205" font-family="NanumGothic" font-size="13.5" font-weight="bold" fill="#028090" text-anchor="middle">71%</text><rect x="190" y="226" width="655" height="54" rx="4" fill="#F9EAE7" stroke="#B85042" stroke-width="1.5"/><line x1="190" y1="280" x2="845" y2="280" stroke="#D5DAE1" stroke-width="1"/><text x="50" y="248" font-family="NanumGothic" font-size="13" font-weight="bold" fill="#1E2761" text-anchor="start">CNC 가공</text><text x="50" y="266" font-family="NanumGothic" font-size="11" font-weight="bold" fill="#B85042" text-anchor="start">★ 병목</text><rect x="192.62" y="239" width="125.75999999999999" height="28" rx="5" fill="#B85042" stroke="#8B3A30" stroke-width="1"/><text x="255.5" y="257" font-family="NanumGothic" font-size="11" font-weight="bold" fill="#FFFFFF" text-anchor="middle">WO-301</text><rect x="323.62" y="239" width="125.75999999999999" height="28" rx="5" fill="#B85042" stroke="#8B3A30" stroke-width="1"/><text x="386.5" y="257" font-family="NanumGothic" font-size="11" font-weight="bold" fill="#FFFFFF" text-anchor="middle">WO-302</text><rect x="454.62" y="239" width="125.75999999999999" height="28" rx="5" fill="#B85042" stroke="#8B3A30" stroke-width="1"/><text x="517.5" y="257" font-family="NanumGothic" font-size="11" font-weight="bold" fill="#FFFFFF" text-anchor="middle">WO-303</text><rect x="585.62" y="239" width="125.75999999999999" height="28" rx="5" fill="#B85042" stroke="#8B3A30" stroke-width="1"/><text x="648.5" y="257" font-family="NanumGothic" font-size="11" font-weight="bold" fill="#FFFFFF" text-anchor="middle">WO-304</text><rect x="716.6199999999999" y="239" width="121.83000000000008" height="28" rx="5" fill="#B85042" stroke="#8B3A30" stroke-width="1"/><text x="777.535" y="257" font-family="NanumGothic" font-size="11" font-weight="bold" fill="#FFFFFF" text-anchor="middle">WO-305</text><text x="898" y="259" font-family="NanumGothic" font-size="13.5" font-weight="bold" fill="#B85042" text-anchor="middle">96%</text><line x1="190" y1="334" x2="845" y2="334" stroke="#D5DAE1" stroke-width="1"/><text x="50" y="312" font-family="NanumGothic" font-size="13" font-weight="bold" fill="#1E2761" text-anchor="start">조립</text><rect x="307.9" y="293" width="85.15" height="28" rx="5" fill="#028090" stroke="#01677A" stroke-width="1"/><text x="350.47499999999997" y="311" font-family="NanumGothic" font-size="11" font-weight="bold" fill="#FFFFFF" text-anchor="middle">WO-313</text><rect x="484.75" y="293" width="104.79999999999998" height="28" rx="5" fill="#028090" stroke="#01677A" stroke-width="1"/><text x="537.15" y="311" font-family="NanumGothic" font-size="11" font-weight="bold" fill="#FFFFFF" text-anchor="middle">WO-316</text><rect x="714.0" y="293" width="85.15000000000005" height="28" rx="5" fill="#028090" stroke="#01677A" stroke-width="1"/><text x="756.575" y="311" font-family="NanumGothic" font-size="11" font-weight="bold" fill="#FFFFFF" text-anchor="middle">WO-320</text><text x="898" y="313" font-family="NanumGothic" font-size="13.5" font-weight="bold" fill="#028090" text-anchor="middle">58%</text><line x1="190" y1="388" x2="845" y2="388" stroke="#D5DAE1" stroke-width="1"/><text x="50" y="366" font-family="NanumGothic" font-size="13" font-weight="bold" fill="#1E2761" text-anchor="start">검사</text><rect x="360.3" y="347" width="58.949999999999996" height="28" rx="5" fill="#028090" stroke="#01677A" stroke-width="1"/><rect x="583.0" y="347" width="58.950000000000024" height="28" rx="5" fill="#028090" stroke="#01677A" stroke-width="1"/><rect x="759.8499999999999" y="347" width="58.950000000000024" height="28" rx="5" fill="#028090" stroke="#01677A" stroke-width="1"/><text x="898" y="367" font-family="NanumGothic" font-size="13.5" font-weight="bold" fill="#028090" text-anchor="middle">45%</text><line x1="190.0" y1="112" x2="190.0" y2="388" stroke="#C6CCD5" stroke-width="0.8" stroke-dasharray="2,3"/><line x1="321.0" y1="112" x2="321.0" y2="388" stroke="#C6CCD5" stroke-width="0.8" stroke-dasharray="2,3"/><line x1="452.0" y1="112" x2="452.0" y2="388" stroke="#C6CCD5" stroke-width="0.8" stroke-dasharray="2,3"/><line x1="583.0" y1="112" x2="583.0" y2="388" stroke="#C6CCD5" stroke-width="0.8" stroke-dasharray="2,3"/><line x1="714.0" y1="112" x2="714.0" y2="388" stroke="#C6CCD5" stroke-width="0.8" stroke-dasharray="2,3"/><line x1="845.0" y1="112" x2="845.0" y2="388" stroke="#C6CCD5" stroke-width="0.8" stroke-dasharray="2,3"/><text x="480.0" y="412" font-family="NanumGothic" font-size="13" font-weight="bold" fill="#B85042" text-anchor="middle">병목 CNC 가공: 부하율 96% — 병목의 1시간이 공장 전체의 1시간이다 (TOC)</text><rect x="292" y="428" width="16" height="12" rx="2" fill="#028090" stroke="#028090" stroke-width="0"/><text x="316" y="438" font-family="NanumGothic" font-size="11.5" font-weight="normal" fill="#5A6472" text-anchor="start">일반 워크센터 작업</text><rect x="510" y="428" width="16" height="12" rx="2" fill="#B85042" stroke="#B85042" stroke-width="0"/><text x="534" y="438" font-family="NanumGothic" font-size="11.5" font-weight="normal" fill="#5A6472" text-anchor="start">병목 워크센터 작업</text><text x="480.0" y="486" font-family="NanumGothic" font-size="11.5" font-weight="normal" fill="#5A6472" text-anchor="middle">frePPLe는 셋업 그룹·능력 제약을 반영해 작업 순서를 최적화한다 — 2부 13장·16장</text></svg>